<svg data-testid="insiders-logo" class="insiders-logo_insidersLogo__4_bAW insiders-banner_logo__Ykl2m" fill="none" height="49" viewBox="0 0 150 49" width="150" xmlns="http://www.w3.org/2000/svg"><g id="insiders-club-text"><path d="M50.52 14.1H46.7v14.84h3.83V14.09ZM53.65 28.94V14.09h3.02l.8 1.93a4.96 4.96 0 0 1 4.4-2.36c3.45 0 5.56 2.43 5.56 5.97v9.33H63.6v-9.01c-.28-1.82-1.34-2.7-2.93-2.7-1.6 0-2.86.95-3.16 2.7v9l-3.86-.01ZM69.45 26.49l2.66-2.39a3.95 3.95 0 0 0 3.33 2.1c1.05 0 1.86-.44 2.11-1.03v-.9c-.22-.53-.63-.78-1.5-1l-2.54-.66c-2-.53-3.22-1.55-3.54-3.27v-2.07c.62-2.04 2.98-3.63 5.77-3.63 2.4 0 4.2.82 5.63 2.61l-2.5 2.22c-.75-1.13-1.75-1.65-3.22-1.65-.91 0-1.7.38-1.93 1.02v.54c.22.55.63.89 1.6 1.12l2.07.47c2.34.52 3.4 1.46 3.95 3.2v2.61c-.65 2.2-2.74 3.61-5.94 3.61a7.19 7.19 0 0 1-5.95-2.9ZM87.74 14.1h-3.83v14.84h3.83V14.09ZM101.3 23.04v-3.1c-.44-1.83-1.73-2.85-3.57-2.85-1.84 0-3.13 1.02-3.56 2.86v3.09c.43 1.97 1.7 2.86 3.56 2.86s3.13-.89 3.56-2.86Zm-10.92 1.1v-5.28c.68-3.25 2.88-5.22 6.51-5.22 1.86 0 3.43.68 4.43 1.9V7.5h3.83v21.45h-3.02l-.81-1.8c-1.02 1.46-2.64 2.23-4.7 2.23-3.32 0-5.56-1.86-6.24-5.22ZM111.55 19.72h6.77c-.32-1.68-1.5-2.77-3.3-2.77-1.79 0-3.01 1.05-3.47 2.77Zm3.4-6.08c3.91 0 6.3 1.93 7.04 5.6v3.03l-.4.4h-10.15c.34 2.02 1.61 3.23 3.72 3.23a4.5 4.5 0 0 0 3.8-1.82l2.53 2.38c-1.47 1.98-3.67 2.89-6.33 2.89-3.9 0-6.42-1.86-7.44-5.61v-4.52c1-3.51 3.72-5.58 7.24-5.58ZM132.82 14.1v3.67h-2.11c-1.4 0-2.23.7-2.45 2.11v9.06h-3.84V14.09h3.02l.82 1.96c.54-1.18 1.43-1.96 2.86-1.96h1.7ZM133.61 26.49l2.66-2.39a3.95 3.95 0 0 0 3.33 2.1c1.05 0 1.87-.44 2.12-1.03v-.9c-.23-.53-.64-.78-1.5-1l-2.54-.66c-2-.53-3.23-1.55-3.55-3.27v-2.07c.62-2.04 2.98-3.63 5.77-3.63 2.4 0 4.2.82 5.63 2.61l-2.5 2.22c-.75-1.13-1.75-1.65-3.22-1.65-.9 0-1.7.38-1.93 1.02v.54c.23.55.64.89 1.61 1.12l2.07.47c2.34.52 3.4 1.46 3.95 3.2v2.61c-.66 2.2-2.75 3.61-5.95 3.61a7.22 7.22 0 0 1-5.95-2.9Z" fill="var(--insiders-logo-text-color, #000)"></path><path d="M82.14 9.15h1.38V7.87c0-.22.18-.38.39-.38h3.83c.23 0 .39.18.39.38v1.28h1.38v2.95h-7.37V9.15Z" fill="var(--insiders-logo-i-brick-color, #00a3da)"></path><path d="M46.12 10a2.51 2.51 0 1 1 5.04 0c0 1.41-1.14 2.53-2.52 2.53A2.5 2.5 0 0 1 46.12 10Z" fill="var(--insiders-logo-text-color, #000)"></path><path d="M146.55 15.68v-1.65h-.57v-.39h1.57v.39h-.57v1.65h-.43ZM147.98 15.68v-2.04h.45l.55.89h.04l.55-.89h.45v2.04h-.4v-1.27h-.05l-.39.66h-.31l-.4-.66h-.04v1.27h-.45Z" fill="var(--insiders-logo-trademark-color, var(--insiders-logo-text-color, #535353))"></path><path d="M113.73 48.82c-1.3 0-2.4-.39-3.31-1.13a5.09 5.09 0 0 1-1.75-3.05c-.02-.56-.05-1.02-.05-1.36 0-.36.03-.81.05-1.36.25-1.27.86-2.3 1.77-3.04a5.09 5.09 0 0 1 3.3-1.14c.99 0 1.83.19 2.53.55.73.34 1.32.88 1.82 1.61l-1.34 1.14a3.62 3.62 0 0 0-1.3-1.28 3.82 3.82 0 0 0-1.79-.36 3.2 3.2 0 0 0-3.2 2.61l-.06 1.3.06 1.29c.16.75.55 1.38 1.16 1.88.6.48 1.3.73 2.04.73.66 0 1.2-.12 1.68-.34a3.8 3.8 0 0 0 1.39-1.23l1.25 1.18a5.13 5.13 0 0 1-1.82 1.57c-.68.27-1.5.43-2.43.43Zm8.51-.27c-.97 0-1.72-.25-2.27-.75-.52-.5-.77-1.23-.77-2.18v-12.3h1.82v12.1c0 .95.4 1.45 1.22 1.45h.96v1.7h-.96v-.02Zm5.63.27c-1.22 0-2.18-.34-2.86-1.04-.68-.69-1.02-1.66-1.02-2.93v-6.86h1.82v6.65c.04.73.3 1.34.7 1.8.43.45 1.02.68 1.8.68.63 0 1.15-.16 1.6-.5.48-.34.82-.84 1.05-1.45v-7.2h1.8v10.58h-1.37l-.43-1.39c-.66 1.12-1.7 1.66-3.09 1.66Zm12.44 0c-.82 0-1.52-.11-2.09-.36a3.8 3.8 0 0 1-1.47-1.23l-.44 1.34h-1.38V33.34h1.81v5.9c.41-.47.91-.86 1.48-1.11a4.87 4.87 0 0 1 1.93-.39c1.18 0 2.16.3 2.93.91.77.61 1.3 1.48 1.59 2.57a11.8 11.8 0 0 1 0 4.17 4.68 4.68 0 0 1-1.6 2.54 4.3 4.3 0 0 1-2.76.89Zm-.55-1.66c.82 0 1.5-.2 2.02-.63.55-.41.91-1.02 1.12-1.8a7.4 7.4 0 0 0 0-2.95 3.3 3.3 0 0 0-1.14-1.77 3.12 3.12 0 0 0-2.02-.63c-.66 0-1.25.18-1.77.54a3.4 3.4 0 0 0-1.25 1.5v3.75c.32.7.73 1.2 1.18 1.52a3.5 3.5 0 0 0 1.86.47Z" fill="var(--insiders-logo-text-color, #000)"></path></g><g id="lego-logo"><path d="M38.7.25H.25v38.52H38.7V.25Z" fill="#fff"></path><path d="M36.13 16.27c-.11 1.25-.36 2.5-.77 3.7-1.34 4.02-2.93 6.52-6.56 6.52-1.07 0-2.97-.28-3.65-2.18l-.16-.46-.3.39a5.86 5.86 0 0 1-4.63 2.27c-1.38 0-2.5-.45-3.22-1.34l-.2-.25-.2.23a4.98 4.98 0 0 1-3.68 1.34c-1.23 0-2.3-.41-3-1.18l-.2-.2-.2.2c-.78.8-2 1.18-3.55 1.13-1.86-.04-3-1.09-3.04-2.79-.07-2.63 2.47-8.15 3.54-9.83a3.12 3.12 0 0 1 2.88-1.65c.84 0 1.43.18 1.77.54.32.34.39.61.41 1.3l.05.88.45-.75c1.11-1.8 2.95-2.04 4.79-2.04 1.27 0 2.38.47 2.84 1.2l.16.27.22-.2a5.74 5.74 0 0 1 3.75-1.25c1.6 0 2.77.4 3.47 1.18.18.18.32.39.4.61l.19.39.27-.32a5.16 5.16 0 0 1 4.13-1.81c1.36 0 2.4.36 3.09 1.09.88.86 1 2.1.95 3.01ZM.25 38.77H38.7V.25H.25v38.52Z" fill="#FFED00"></path><path d="M37.22 17.75c-.18 1.4-1.11 4-1.6 5.04-1.35 2.79-3.16 4.92-6.64 4.92-1.86 0-3.38-.59-4.26-1.72a7.05 7.05 0 0 1-4.66 1.75 5.49 5.49 0 0 1-3.42-1.12 6.57 6.57 0 0 1-3.84 1.1 5.52 5.52 0 0 1-3.24-.98c-.98.63-2.25.95-3.73.93-2.5-.07-4.2-1.64-4.24-3.93-.07-3.04 2.5-8.62 3.7-10.55a4.5 4.5 0 0 1 3.97-2.3c1.84 0 2.5.53 2.81 1.18 1.41-1.2 3.3-1.27 4.63-1.27 1.48 0 2.41.39 3.18 1.03a7.26 7.26 0 0 1 3.82-1c1.9 0 3.29.43 4.28 1.4a6.35 6.35 0 0 1 4.18-1.38c2.11 0 3.52.77 4.34 1.9 1.13 1.64.93 3.27.72 5ZM.25 38.77H38.7V.25H.25v38.52Z" fill="#E2000A"></path><path d="M38.42 38.5H.52V.53H38.4V38.5h.02ZM0 39h38.97V-.02H0V39Z" fill="#151515"></path><path d="M37.2 10.83c-.52 0-.93.4-.93.93 0 .52.4.93.93.93.52 0 .93-.41.93-.93 0-.53-.4-.93-.93-.93Zm0 .2c.4 0 .75.34.75.75 0 .4-.34.75-.75.75a.76.76 0 0 1-.75-.75c0-.4.34-.75.75-.75Zm.48 1.23-.12-.2c-.09-.19-.13-.21-.2-.24.16 0 .27-.13.25-.27 0-.16-.1-.27-.3-.27h-.47v.98h.2v-.39h.05c.09 0 .1 0 .15.05.05.06.1.1.14.18l.07.16h.23Zm-.64-.55v-.27h.18c.14 0 .2.04.2.14 0 .06-.04.13-.18.13h-.2ZM32.39 16.18c-.05 1-1.5 5-2.02 5.86-.23.38-.48.7-.93.7-.32.02-.57-.23-.6-.54v-.07c-.02-.9 1.62-5.4 2.19-6.15.18-.3.5-.48.84-.46.47.03.52.37.52.66Zm2.65 1.64a19.15 19.15 0 0 1-1.88 5.06c-1.32 2.38-2.93 2.7-4.31 2.7-1.41-.02-2.98-.55-3-2.7 0-1.55.66-3.75 1.23-5.18 1-2.6 2-4.72 5.2-4.7 3.72.05 3.06 3.36 2.76 4.82ZM23.2 15.5c-.48.02-.91.3-1.16.7-.57.82-1.84 4.07-2.02 5.4-.14.91.25 1.12.7 1.12.68 0 1.48-.73 1.73-1.95 0 0-1.32-.03-.96-1.2.37-1.14 1.02-1.39 2.14-1.44 2.18-.09 1.97 1.52 1.79 2.39-.57 2.81-2.56 5.06-5.38 5.06-1.93 0-3.13-1.07-3.13-3.04 0-1.41.7-3.61 1.25-4.9 1.18-2.75 2.4-4.68 5.53-4.68 1.89 0 3.36.68 3.16 2.45-.16 1.3-.82 2.04-1.97 2.16-.35.02-1.68 0-1.23-1.27.16-.46.2-.8-.45-.8Zm-9.8 4.86c-.15.34-.37 1.09-.58 1.86.64-.18 1.3-.27 1.96-.25.93.02 1.54.4 1.54 1.18 0 1.88-2.09 2.43-3.52 2.43-1.59 0-2.97-.9-2.97-2.63 0-2.02 1.09-5.11 2.13-7.15 1.27-2.52 2.57-2.86 4.79-2.86.98 0 2.11.4 2.11 1.34 0 1.29-1.09 1.77-2.16 1.83-.52.05-1.06.05-1.58.03-.3.47-.55 1-.75 1.52 2-.27 2.83.18 2.5 1.31-.48 1.57-1.82 1.68-3.48 1.39Zm-6.36 1.8c1.95-.35 2.45.35 2.38 1.01-.18 1.95-1.98 2.4-3.54 2.36-1.14-.02-2.14-.54-2.18-1.86-.05-2.29 2.3-7.6 3.38-9.37.5-.84 1.14-1.25 2.11-1.25.93 0 1.16.48 1.16 1.07 0 1.52-2.5 6.2-3.31 8.03Zm25.08-10.34c-2.02 0-3.4.8-4.36 1.93a2.74 2.74 0 0 0-.46-.68c-.77-.86-2.02-1.27-3.67-1.27a6 6 0 0 0-3.93 1.32c-.5-.8-1.66-1.32-3.06-1.32-1.84 0-3.84.25-5.02 2.18-.02-.68-.09-1.07-.48-1.47-.47-.5-1.22-.64-1.97-.64a3.4 3.4 0 0 0-3.09 1.8c-1.06 1.7-3.63 7.28-3.58 9.98.04 1.75 1.2 3 3.29 3.06 1.63.05 2.93-.4 3.74-1.22.73.8 1.84 1.27 3.18 1.27 1.5 0 3-.46 3.88-1.43.75.9 1.93 1.45 3.43 1.45 1.88 0 3.67-.88 4.83-2.38.62 1.7 2.2 2.36 3.93 2.36 3.77 0 5.42-2.59 6.8-6.7.42-1.22.69-2.47.8-3.76.14-2.18-.77-4.48-4.26-4.48Z" fill="#151515"></path></g></svg>