<svg xmlns="http://www.w3.org/2000/svg" width="2026" height="40" fill="none" viewBox="0 0 2026 40" preserveAspectRatio="none">
  <path fill="#fff" d="m1005 2.4 1.4 1.2-3 4.1-3 .4-2.7-3.3 2.7-4.8 1.9.8.4-.6c.1-.1.3 0 1.3.4.9.6 1.4 1.1 1.3 1.3l-.4.5Z"/>
  <path fill="#fff" d="m1018.4 11 5.6-1.8v.1l4.6-1.5 5.5 14.5 1.7-.4-1.1-4.8 12.8-3.4 1.4 4.3 9-2.5 15.2 11.6 3.6-9.4 8 2.6 1.3-3c.3-.6 3.8 0 8.1 2 4.3 2.1 5.2 2.9 5 3.5l-1.1 3 5.2 3.5 12.7-9.7 8.5 2.4 1.3-4.1 12.1 3.3-1 4.4 4.1 1.3 4.1-22.2 15.8 2.2 1.4-5.9c.3-1.3 7-1.4 15.7 1s10.5 3.6 10.3 4.8l-1 6 16.4 7-1.6 5.4 4.2-1.9-.8-5c-.2-1.1 1.3-2.1 8.8-4.2 7.4-2 13.2-2 13.4-.8l1.2 5 13.5-1.9 2.5 13 5.1-1.5-1-4 11-3 1.2 3.7 7.6-2 6.8 5.1-2-13 15.6-3-.6-6c-.2-1.3 6-3.5 15-4 9-.4 11 0 11.2 1.3l1 5.9 17.7 1.5.3 9 2-1.3-1.4-3.8c-.3-.8.8-1.8 6.2-4.4 5.4-2.6 9.9-3.3 10.2-2.5l1.6 3.7 10.2-3.3 5.5 14.5 1.6-.4-1-4.8 12.8-3.4 1.3 4.3 9-2.5 14 10.6 6.6-17.5 10 3.3 1.5-3.7c.4-.8 4.8-.1 10.1 2.5s6.4 3.5 6.1 4.3l-1.4 3.7 9.9 6.5-.7 1.4 5.3-4 7.6 2 1.2-3.7 11 3-1 4 2.6.8 4.4-24 15.8 2.2 1.4-5.9c.3-1.3 7-1.4 15.7 1s10.5 3.6 10.2 4.8l-1 6 16.5 7-1.6 5.4 4.2-1.9-.9-5c-.2-1.1 1.4-2.1 8.8-4.2 7.5-2 13.2-2 13.5-.8l1.2 5 13.5-1.9 2.9 15.5 3-1-.7-3.3 9.2-2.5 1 3 6.5-1.7 12.5 9.5-3.2-21.3 15.6-3-.6-5.8c-.2-1.4 6-3.6 15-4 9-.5 11 0 11.2 1.2l1 5.9 17.7 1.5.3 9 2-1.3-1.4-3.8c-.3-.8.7-1.8 6.2-4.4 5.4-2.6 9.9-3.3 10.2-2.5l1.6 3.7 10.2-3.3 4.7 12.4 7-2-1.5-6.5 17.6-4.8 1.8 6 12.3-3.4 10.5 8 2.7-7.2 9.6 3.2 1.5-3.6c.4-.8 4.6-.1 9.7 2.4 5.2 2.5 6.2 3.4 5.9 4.1l-1.3 3.6 7.1 4.8 3-2.3 7.6 2.1 1.2-3.7 10.9 3-1 4 2.6.8 4.5-24 15.8 2.2 1.3-5.9c.3-1.3 7-1.4 15.7 1s10.5 3.6 10.3 4.8l-1 6 16.5 7-1.6 5.4 4.2-1.9-.9-5c-.2-1.1 1.4-2.1 8.8-4.2 7.4-2 13.2-2 13.5-.8l1.1 5 13.6-1.9 2.4 13 5.1-1.5-.9-4 11-3 1.1 3.7 7.6-2 6.8 5.1-1.9-13 15.5-3a456 456 0 0 0-.6-6c-.1-1.3 6.1-3.5 15-4 9-.4 11 0 11.2 1.3l1 5.9 17.8 1.5.3 9 2-1.3-1.5-3.8c-.3-.8.8-1.8 6.2-4.4 5.5-2.6 10-3.3 10.3-2.5l1.6 3.7 5.9-1.9V40H0V12.4a49 49 0 0 1 4.6-2.5c5.5-2.6 10-3.3 10.3-2.5l1.6 3.7 10.1-3.3 5.5 14.5 1.7-.4-1.1-4.8 12.8-3.4L47 18l9-2.5L71 27.1l3.6-9.4 8 2.6 1.3-3c.3-.6 3.8 0 8.1 2 4.3 2.1 5.2 2.9 5 3.5l-1.2 3 5.3 3.5 12.7-9.7 8.5 2.4 1.3-4.1 12.1 3.3-1 4.4L139 27 143 4.7 158.8 7a496 496 0 0 0 1.4-5.9c.3-1.3 7-1.4 15.7 1s10.5 3.6 10.3 4.8l-1 6 16.4 7-1.6 5.4 4.2-1.9a846 846 0 0 0-.8-5c-.2-1.1 1.3-2.1 8.8-4.2 7.4-2 13.2-2 13.4-.8l1.2 5 13.5-1.9 2.5 13 5.1-1.5-1-4 11-3 1.2 3.7 7.6-2 6.8 5.1-2-13 15.6-3-.6-6c-.2-1.3 6-3.5 15-4 9-.4 11 0 11.2 1.3l1 5.9 17.7 1.5.3 9 2-1.3-1.4-3.8c-.3-.8.8-1.8 6.2-4.4 5.4-2.6 9.9-3.3 10.2-2.5l1.6 3.7 10.2-3.3 5.5 14.5 1.6-.4-1-4.8 12.8-3.4 1.3 4.3 9-2.5 14 10.6 6.6-17.5 10 3.3 1.5-3.7c.4-.8 4.8-.1 10.1 2.5s6.4 3.5 6.1 4.3l-1.4 3.7 9.9 6.5-.7 1.4 5.3-4 7.6 2L460 21l11 3-1 4 2.6.8 4.4-24L492.7 7a496 496 0 0 0 1.4-5.9c.3-1.3 7-1.4 15.7 1s10.5 3.6 10.2 4.8l-1 6 16.5 7-1.6 5.4 4.2-1.9-.9-5c-.2-1.1 1.4-2.1 8.8-4.2 7.5-2 13.2-2 13.5-.8l1.2 5 13.5-1.9 2.9 15.5 3-1-.7-3.3 9.2-2.5 1 3 6.5-1.7 12.5 9.5-3.2-21.3 15.6-3-.6-5.8c-.2-1.4 6-3.6 15-4 9-.5 11 0 11.2 1.2l1 5.9 17.7 1.5.3 9 2-1.3-1.4-3.8c-.3-.8.7-1.8 6.2-4.4 5.4-2.6 9.9-3.3 10.2-2.5l1.6 3.7 10.2-3.3 4.7 12.4 7-2-1.5-6.5 17.6-4.8 1.8 6 12.3-3.4 10.5 8 2.7-7.2 9.6 3.2 1.5-3.6c.4-.8 4.6-.1 9.7 2.4 5.2 2.5 6.2 3.4 5.9 4.1l-1.3 3.6 7.1 4.8 3-2.3 7.6 2.1 1.2-3.7 10.9 3-1 4 2.6.8 4.5-24L826.6 7l1.3-5.9c.3-1.3 7-1.4 15.7 1s10.5 3.6 10.3 4.8l-1 6 16.5 7-1.6 5.4 4.2-1.9-.9-5c-.2-1.1 1.4-2.1 8.8-4.2 7.4-2 13.2-2 13.5-.8l1.1 5 13.6-1.9 2.4 13 5.1-1.5-.9-4 11-3 1.1 3.7 7.6-2 6.8 5.1-1.9-13 15.5-3-.6-6c-.1-1.3 6.1-3.5 15-4 9-.4 11 0 11.2 1.3l1 5.9 17.7 1.5.4 9 2-1.3-1.5-3.8c-.3-.8.8-1.8 6.2-4.4a24 24 0 0 1 9.4-2.8c.7 0 1.2 0 1.3.3l1.5 3.6Z"/>
  <path fill="#fff" d="m739.3 4.7 1.3-1-.4-.6s.4-.6 1.2-1c.8-.5 1-.5 1.1-.4l.4.5 1.7-.7 2.4 4.3-2.4 2.9-2.7-.3-2.6-3.7ZM195.4 3.2l1.8-1.2 3.5 4.6-.7 3.3-4.5 1.8-4.3-4.5 1.5-1.8-.5-.6c0-.2 0-.4 1-1.2.8-.8 1.6-1.2 1.7-1l.5.6ZM61.1 6.2l3 .2.2-1.1c0-.3 1.3-.4 3 0 1.6.3 2 .4 1.9.7L69.1 7l3.2 1-1.9 8.7-6.8 1.1-3.3-3.5.8-8.2ZM267 13.6l1.4.5-1.2 4.1-2.3 1-3-1.8.8-4.5h1.7l.2-.5h1.1c.9.2 1.4.5 1.4.7l-.1.5ZM399 6l-2-.7.2-.7c0-.2-.7-.6-1.9-.8-1.1-.3-1.4-.3-1.5-.1l-.2.8-2.3-.2-1.2 6 4.1 2.6 3-1.4L399 6ZM446.4 11l-1.7.6 1.5 4.7 2.6 1.2 3.4-2.2-1-5.1-2 .1-.1-.6c0-.1-.3-.2-1.3 0s-1.6.6-1.6.7l.2.7ZM525 7.2l1.3.2v-.5l1.2.1c.7.2.8.3.8.4v.4l1.2.5-1 3.4-2.8.3-1.2-1.5.6-3.3ZM590.6 4.5l-4-.6-2 11.3 4.1 5.1 9.6-.9 3.4-11.7-4.2-1.8.2-1.5c0-.4-.4-.6-2.7-1.3-2.2-.6-4-.5-4-.2l-.4 1.6ZM791.6 6.7l2.3-.3v-.9c0-.2 1-.5 2.3-.5 1.4 0 1.7.1 1.7.3v1l2.7.3-.1 7-5.2 2-3.1-2.3-.6-6.6ZM896.3 7.4 898 6l-.5-.7c-.1-.2.6-.8 1.7-1.5 1.1-.6 1.4-.7 1.5-.5l.5.7 2.4-1 3.3 6-3.4 4-3.7-.4-3.6-5.2ZM92.2 9.9l1-1.2 7.8-1.2 1.8 1.8 1-1 2.6 2.6-1 1 1.8 1.7-4.5 4.8-7.5-3.7-3-4.8ZM38.1 6.8l.5.6-1.4 2.3-3.6 1.7-2-2.3.7-.8L32 8l1.3-1.2.4.4.9-.8 3.6.5ZM238 13v-.8l-2.6-2.7-1.2.1V9l-1.8.2v.6l-1 .2.2 3 3.9.8 2.5-.9ZM328.8 3.1l-.5.6 1.3 2.3 3.4 2 2.3-2.2-.8-.8.4-.5-1.1-1.2-.5.3-.8-.8-3.7.3ZM465.7 14l.9-.7.7-5.5-1.3-1.3.6-.6-1.9-1.9-.7.7-1.3-1.2-3.4 3.3 2.9 5.2 3.5 2ZM565.5 12.5l-.5.4-1.7-1-1.4-2.6 1.7-1.6.6.6.4-.3.9.9-.3.3.6.6-.3 2.7ZM697.8 5.3l.3-.5 2.6-.9.7.5.3-.4 1 .7-.2.4.7.5-1.2 2-2.8-.8-1.4-1.5ZM786.1 16.4l.3.5-1.4 1.5-2.8.8-1.2-2 .7-.5-.3-.4 1.1-.7.3.4.7-.5 2.6 1ZM866.6 9.7l.2-.5-.7-2.6-.9-.3.2-.4-1.2-.5-.2.4-.8-.3-.9 2.2 2.3 1.8 2 .2ZM933.8 12.1l-.4.8-3.2-.4-3.8-2.9 1.4-3.4 1.3.4.3-.7 2 .8-.2.7 1.3.5 1.3 4.2ZM2007 2.4l1.4 1.2-3 4.1-3 .4-2.7-3.3 2.7-4.8 1.9.8.4-.6c.1-.1.3 0 1.3.4.9.6 1.4 1.1 1.3 1.3l-.4.5ZM1741.3 4.7l1.3-1-.4-.6s.4-.6 1.2-1c.8-.5 1-.5 1.1-.4l.4.5 1.7-.7 2.4 4.3-2.5 2.9-2.6-.3-2.7-3.7ZM1197.5 3.2l1.7-1.2 3.5 4.6-.7 3.3-4.5 1.8-4.3-4.5 1.5-1.8-.5-.6c0-.2 0-.4 1-1.2.8-.8 1.6-1.2 1.7-1l.5.6ZM1063.1 6.2l3 .2.2-1.1c0-.3 1.3-.4 3 0 1.6.3 2 .4 1.9.7l-.1 1.1 3.2 1-1.9 8.7-6.8 1.1-3.3-3.5.8-8.2ZM1269 13.6l1.4.5-1.2 4.1-2.3 1-3-1.8.8-4.5h1.7l.2-.5h1.1c.9.2 1.5.5 1.4.7l-.1.5ZM1401 6l-2-.7.2-.7c0-.2-.7-.6-1.9-.8-1.1-.3-1.4-.3-1.5-.1l-.2.8-2.3-.2-1.2 6 4.1 2.6 3-1.4L1401 6ZM1448.4 11l-1.7.6 1.5 4.7 2.6 1.2 3.4-2.2-1-5.1-2 .1V10l-.1-.3c0-.1-.3-.2-1.3 0s-1.6.6-1.6.7l.2.7ZM1527 7.2l1.3.2v-.5l1.3.1c.6.2.7.3.7.4v.4l1.2.5-1 3.4-2.8.3-1.2-1.5.6-3.3ZM1592.7 4.5l-4.1-.6-2 11.3 4.2 5.1 9.5-.9 3.4-11.7-4.2-1.8.2-1.5c0-.4-.4-.6-2.7-1.3-2.2-.6-4-.5-4-.2l-.3 1.6ZM1793.6 6.7l2.3-.3v-.9c0-.2 1-.5 2.3-.5 1.3 0 1.7.1 1.7.3v1l2.7.3-.1 7-5.2 2-3.1-2.3-.6-6.6ZM1898.3 7.4 1900 6l-.5-.7c0-.2.6-.8 1.7-1.5 1.1-.6 1.4-.7 1.5-.5l.5.7 2.4-1 3.3 6-3.4 4-3.7-.4-3.6-5.2ZM1094.2 9.9l1-1.2 7.8-1.2 1.8 1.8 1-1 2.6 2.6-1 1 1.8 1.7-4.5 4.8-7.5-3.7-3-4.8ZM1040.1 6.8l.5.6-1.4 2.3-3.6 1.7-2-2.3.7-.8-.4-.4 1.3-1.2.4.4.9-.8 3.6.5ZM1240 13v-.8l-2.5-2.7-1.3.1V9l-1.8.2v.6l-1 .2.2 3 3.9.8 2.5-.9ZM1330.8 3.1l-.5.6 1.3 2.3 3.4 2 2.3-2.2-.8-.8.5-.5-1.2-1.2-.5.3-.8-.8-3.7.3ZM1467.7 14l.9-.7.7-5.5-1.3-1.3.6-.6-1.9-1.9-.7.7-1.3-1.2-3.4 3.3 2.9 5.2 3.5 2ZM1567.5 12.5l-.5.4-1.7-1-1.4-2.6 1.7-1.6.6.6.3-.3 1 .9-.3.3.6.6-.3 2.7ZM1699.8 5.3l.3-.5 2.6-.9.7.5.3-.4 1 .7-.2.4.7.5-1.2 2-2.8-.8-1.4-1.5ZM1788.1 16.4l.3.5-1.4 1.5-2.8.8-1.2-2 .7-.5-.3-.4 1.1-.7.3.4.7-.5 2.6 1ZM1868.6 9.7l.2-.5-.7-2.6-.9-.3.2-.4-1.2-.5-.2.4-.8-.3-.9 2.2 2.3 1.8 2 .2ZM1935.8 12.1l-.4.8-3.3-.4-3.7-2.9 1.4-3.4 1.3.4.4-.7 1.9.8-.2.7 1.3.5 1.3 4.2Z"/>
</svg>