<svg viewBox="0 0 40 40" fill="#fff" xmlns="http://www.w3.org/2000/svg" class="icon_small__TDIu7 icon_currentColor___quUc" data-testid="GamepadModernSolid"><path d="M0 27.125c0-.375 0-.813.063-1.188L2.124 14c.5-3.125 2.563-5.813 5.625-6.563C10.625 6.688 14.75 6 20 6c5.188 0 9.313.688 12.188 1.438 3.062.75 5.124 3.437 5.624 6.562l2.063 11.938c.063.375.125.812.125 1.187v.188C40 31 36.937 34 33.25 34c-3.125 0-5.813-2.063-6.563-5.063L26.5 28h-13l-.25.938C12.5 31.938 9.812 34 6.687 34 3 34 0 31 0 27.312v-.187ZM27 18.5c-.938 0-1.75.5-2.188 1.25-.437.813-.437 1.75 0 2.5.438.813 1.25 1.25 2.188 1.25.875 0 1.688-.438 2.125-1.25.438-.75.438-1.688 0-2.5-.438-.75-1.25-1.25-2.125-1.25Zm1.5-3.5c0 .938.438 1.75 1.25 2.188.75.437 1.688.437 2.5 0A2.52 2.52 0 0 0 33.5 15c0-.875-.5-1.688-1.25-2.125-.813-.438-1.75-.438-2.5 0-.813.438-1.25 1.25-1.25 2.125Zm-15-.5c0-.813-.688-1.5-1.5-1.5-.875 0-1.5.688-1.5 1.5v2h-2c-.875 0-1.5.688-1.5 1.5 0 .875.625 1.5 1.5 1.5h2v2c0 .875.625 1.5 1.5 1.5.813 0 1.5-.625 1.5-1.5v-2h2c.813 0 1.5-.625 1.5-1.5 0-.813-.688-1.5-1.5-1.5h-2v-2Z"></path></svg>