<svg viewBox="0 0 40 40" fill="#fff" xmlns="http://www.w3.org/2000/svg" class="icon_medium__PZVr0 icon_currentColor___quUc desktop-header_icon__aQuFI" data-testid="Bars"><path d="M6 10c0-.813.625-1.5 1.5-1.5h25c.813 0 1.5.688 1.5 1.5 0 .875-.688 1.5-1.5 1.5h-25c-.875 0-1.5-.625-1.5-1.5Zm0 10c0-.813.625-1.5 1.5-1.5h25c.813 0 1.5.688 1.5 1.5 0 .875-.688 1.5-1.5 1.5h-25c-.875 0-1.5-.625-1.5-1.5Zm28 10c0 .875-.688 1.5-1.5 1.5h-25c-.875 0-1.5-.625-1.5-1.5 0-.813.625-1.5 1.5-1.5h25c.813 0 1.5.688 1.5 1.5Z"></path></svg>