<svg viewBox="0 0 40 40" fill="#fff" xmlns="http://www.w3.org/2000/svg" class="icon_small__TDIu7 icon_currentColor___quUc" data-testid="Grid2Solid"><path d="M18 9v6a3 3 0 0 1-3 3H9c-1.688 0-3-1.313-3-3V9a3 3 0 0 1 3-3h6c1.625 0 3 1.375 3 3Zm0 16v6a3 3 0 0 1-3 3H9c-1.688 0-3-1.313-3-3v-6a3 3 0 0 1 3-3h6c1.625 0 3 1.375 3 3Zm4-16a3 3 0 0 1 3-3h6c1.625 0 3 1.375 3 3v6a3 3 0 0 1-3 3h-6c-1.688 0-3-1.313-3-3V9Zm12 16v6a3 3 0 0 1-3 3h-6c-1.688 0-3-1.313-3-3v-6a3 3 0 0 1 3-3h6c1.625 0 3 1.375 3 3Z"></path></svg>